<?xml version="1.0" encoding="UTF-8"?>
<svg xmlns="http://www.w3.org/2000/svg" width="160" height="213">
  <path d="M84.81.496c0 .526 0 .526.66 0 .463-.461.925-.56 1.717-.395l.958.197.165.033h.099l.165.066.165.033.165.066c1.353.329 2.509.757 2.08.757-1.156.066-.165.69 1.386.888 1.32.165 1.585.33 1.453.823-.132.428 0 .659.33.659s.561-.198.561-.395c0-.198.198-.297.43-.198.198.066.33.33.33.494-.033.164.528.395 1.254.527 2.311.362 3.599 1.053 3.599 1.909 0 .428-.166.987-.397 1.185-.66.658.99 1.185 2.18.724.527-.198.858-.428.759-.527-.1-.132 0-.395.198-.625.429-.428 1.617-.099 2.542.724.396.362.297.428-.595.428-1.815 0-1.155.56.859.724 1.948.165 6.669 1.843 7.527 2.732.264.263 1.122.658 1.882.856.759.197 1.848.691 2.377 1.119.56.395 1.881 1.185 2.97 1.777l.1.066.198.099c.99.494 1.948.987 2.179 1.152a19.964 19.964 0 0 0 5.414 2.666c.396 0 1.486.724 2.542 1.712.99.987 2.51 2.14 3.301 2.633 3.632 2.206 10.235 8.098 10.697 9.546.132.362.858 1.448 1.617 2.37a17.765 17.765 0 0 1 2.146 3.489c.43.987.99 2.106 1.32 2.469.991 1.185 5.613 11.125 6.174 13.298.33 1.448.463 2.666.298 3.95-.199 1.58-.166 1.744.264 1.415.396-.33.528-.296.66.132.33.823.264 1.448-.165 1.448-.198 0-.693.33-1.09.658l-.693.659.132-1.087c.066-.724-.066-1.25-.396-1.514a1.808 1.808 0 0 1-.528-1.218c0-.921-.66-1.053-1.189-.197-.33.46-.264.724.066 1.218.628.856.595 1.152-.165 1.152-.363 0-.759-.296-.858-.659-.264-.79-.594-.822-1.156-.164-.33.428-.33.658.066 1.086.298.33.595 1.12.727 1.81.264 1.383.198 1.35 1.32.856.66-.329.76-.493.496-.987-.232-.494-.199-.626.165-.626.264 0 .594.33.726.757.495 1.712 1.849 2.37 2.608 1.317.33-.494.396-.46.264.362-.165.79-.099.922.33.757.43-.164.561 0 .561.527 0 .889-1.023 1.646-1.683 1.185-.363-.23-.33-.296.264-.296 1.122 0 1.221-.593.099-.823-.792-.165-1.123-.066-1.717.592a3.236 3.236 0 0 1-1.42.922c-.429.099-.693.46-.759 1.053-.099.823-.033.889 1.057.889a2.978 2.978 0 0 1 1.65.494c.595.658.859.658.859 0 0-.659.759-.297 1.584.823.859 1.119.66 1.975-.363 1.744l-.726-.164.76.526c.957.724.924 1.317-.067 1.778-.66.329-.825.263-.99-.1-.1-.295-.396-.394-.693-.295-.397.164-.43.329-.133.658.298.362.298.46 0 .46-.23 0-.33.165-.165.396.165.23.1.263-.198.099-.66-.428-1.386.757-.99 1.547.33.592.43.592.957.131.33-.296.826-.46 1.156-.329.396.132.528.033.528-.494 0-.625.066-.658.66-.296.495.33.562.46.198.658-.495.33-.33 1.58.198 1.58.199 0 .265.23.132.494-.099.263-.066.494.1.494.132 0 .23 1.317.198 2.962-.066 2.206 0 2.963.33 3.094.957.363.099 4.543-.99 5.004-.418.215-.675.65-.66 1.119-.034.46-.232 1.316-.463 1.909-.264.592-.33 1.185-.198 1.317.132.131.33.032.396-.165.099-.23.297-.428.43-.428.164 0 .065.527-.199 1.152-.231.658-.462 1.481-.462 1.91 0 .526-.33.92-.825 1.151-.892.395-1.09.922-.43 1.12.198.065-.132.658-.825 1.25-.66.593-1.221 1.251-1.221 1.449 0 .197-.232.79-.496 1.316-.33.527-.429 1.185-.33 1.449.198.493-.561 1.58-2.707 3.85-1.42 1.515-1.783 2.634-.99 2.897.33.165-.595.362-1.222.264-.495-.1-1.188.69-1.188 1.316 0 .692.66.823 1.65.33.892-.494.826-.132-.165 1.152a4.21 4.21 0 0 0-.825 1.415c0 .197-.198.362-.462.362-.231 0-.694.362-.99.823-.66.987-1.52 1.086-1.52.164 0-.822-.726-.855-1.452 0-.33.33-.462.79-.33 1.153.165.427.132.526-.132.362a.888.888 0 0 1-.396-.725c0-.263-.264-.46-.561-.46-.694 0-3.07 1.645-3.07 2.073 0 .198-.33.724-.727 1.152l-.76.823 1.288-.197c.66-.099 1.519-.428 1.849-.724.297-.264.825-.494 1.188-.461.33 0 .43.099.232.197l-.562.132c-.099 0-.66.46-1.221 1.02-.594.593-1.123.89-1.222.692-.264-.395-2.707-.395-2.74 0-.066.757.264.987.958.592 1.155-.592.858.165-.43 1.12-.66.493-1.254.79-1.42.69-.197-.098-.527.033-.758.33-.265.329-.694.428-1.156.329-.924-.23-1.353.329-.594.724.792.428.264 1.086-.693.856-.562-.132-.826 0-.99.494-.1.362-.53.757-.925.888-.396.099-.99.395-1.222.659-.264.197-1.023.46-1.65.56h-.132l-1.123.295-.33.066-3.433.922-.265.066-.396.131c-2.674.79-4.126 1.185-5.546 1.449l-.264.033c-1.156.23-2.344.329-4.292.526-2.047.23-3.301.198-3.961 0-.76-.329-1.255-.23-3.302.659-2.113.954-2.608 1.02-5.744 1.02h-.165c-3.004 0-4.028-.132-6.042-.823-2.872-.987-3.994-.987-4.72-.23-.66.724-1.717 5.102-2.213 9.315-.363 2.864-.33 3.291.199 4.41.66 1.482 2.046 2.37 4.093 2.667.826.131 1.849.362 2.311.526l.826.33-.99.395c-.793.329-.86.428-.364.823.264.23.891.46 1.32.493.496 0 .859.132.859.33 0 .098.561.23 1.254.23.66.033.925.099.562.197a3.306 3.306 0 0 0-.99.428c-.331.33.098.428 3.63.988 2.047.329 5.349 1.086 6.768 1.547.33.131.265.263-.33.526l-.825.33.99.23c.562.132 1.519.263 2.146.33 1.783.032 6.57 1.513 7.362 2.205.99.888 6.273 2.402 8.353 2.402 1.254 0 1.815.165 2.278.659a2.314 2.314 0 0 0 1.617.658c1.32 0 3.434.593 3.698 1.053.165.264-.495.33-2.377.132-2.855-.3-5.717-.52-8.584-.658h-.066l-.396.033c-.099.098.132.362.495.658.562.395.595.494.165.757-.264.198-.726.23-.99.099-.825-.395-5.183-.494-4.622-.099 1.32.79 4.622 1.317 8.253 1.317 4.292 0 8.254.329 8.254.658 0 .263-.495.263-25.75.395-18.686.099-18.554.099-22.978 2.238-2.311 1.086-4.622 3.424-4.952 4.839-.066.494-.33 1.448-.462 2.107-.198.658-.33 1.547-.33 1.974 0 .428-.364 1.58-.826 2.535-.462.988-.825 2.107-.825 2.469 0 .164-.198.823-.462 1.646l-.066.197-.496 1.448-.099.264-.033.098-.132.33-.066.23a20.047 20.047 0 0 1-1.32 3.061c-.066.099-.066-.494-.033-1.284.099-1.119-.033-1.58-.561-2.106-.397-.395-.66-.856-.529-.988.1-.197 0-.395-.165-.526-.165-.1-.33-.56-.33-.988 0-1.613-.924-.823-2.64 2.304a15.794 15.794 0 0 1-1.75 2.7c-.378.42-.72.872-1.024 1.349-.198.362-1.123 1.646-2.08 2.897a14.116 14.116 0 0 0-1.75 2.699c0 .197-.198.395-.429.395-.23 0-.924.987-1.518 2.205-1.453 2.963-2.642 4.41-4.754 5.793-2.542 1.712-3.17 2.403-3.4 3.851-.133.758-.397 1.317-.661 1.317-.231 0-.66.33-.924.724-.463.659-.529.527-.529-2.304v-.46c0-1.976-.132-3.621-.33-3.72-.165-.099-.33-.593-.33-1.086a3.286 3.286 0 0 0-.66-1.712c-.363-.46-.66-1.284-.66-1.843 0-.659-.232-1.185-.694-1.514-.594-.395-.726-.79-.693-2.272 0-2.04 1.056-4.707 2.047-5.233.495-.264.66-.659.66-1.646 0-.724.231-1.91.528-2.633l.529-1.317h5.216l.858-1.712a63.443 63.443 0 0 1 1.65-2.93c1.09-1.58 4.854-14.153 4.424-14.581-.198-.198-1.42-.165-3.3.099l-1.982.263h-.23l-.298.066c-6.194.485-12.409.65-18.62.494h-5.38c-7.066 0-8.914-.1-10.235-.461h-.099l-.132-.066-4.457-1.317c-3.17-.954-4.787-1.843-4.787-2.633 0-.33-.23-.592-.561-.592-1.056 0-4.72-1.482-4.72-1.877 0-.263-.43-.428-1.09-.428-1.057 0-1.09-.065-.99-.987.197-1.086-.33-2.6-1.321-4.082l-.66-.954.759-.56c.429-.329.66-.724.528-.954-.198-.297-.363-.297-.693 0-.529.395-.826 0-1.585-2.502-.76-2.469-.891-3.95-.396-4.839.33-.658.33-.987-.033-1.909-.264-.592-.561-1.876-.66-2.83-.198-1.449-.098-1.91.33-2.436.33-.33.858-.659 1.122-.659.297 0 .43-.23.297-.625-.132-.592-.099-.592 1.882.066 1.09.362 2.41.921 2.905 1.25.495.363 1.42.659 2.245.659.594 0 2.245.165 3.962.395l.264.066h.165l.264.033c1.026.149 2.05.314 3.07.493l.43.066c1.452.23 2.905.461 3.83.56 2.442.329 2.838.46 2.508.856-.528.658-.264.823 1.42 1.02.792.099 1.716.428 2.08.757.33.33.99.691 1.42.823.428.132.89.593 1.056 1.02.23.593.56.79 1.32.79.528 0 .99.1.99.264 0 .493 3.566 1.119 4.26.757.461-.264.66-.264.759.033.099.23.33.329.792.131a18.142 18.142 0 0 1 9.937.659c1.489.444 2.998.818 4.523 1.119.264 0 .825-.724 1.254-1.646.43-.889.958-1.646 1.156-1.646.429 0 .594-1.646.462-4.476-.066-.988.132-1.712.792-2.7.727-1.086.826-1.448.495-1.974-.198-.428-.33-1.942-.33-3.457 0-1.48-.099-3.884-.33-5.332-.132-1.448-.264-2.93-.23-3.259v-.362c-.034-.197-.232-.362-.925-.691l-.1-.066-3.367-1.547c-5.183-2.271-6.206-2.83-6.404-3.291-.066-.23-1.057-1.054-2.146-1.778a18.14 18.14 0 0 1-3.202-2.864 10.99 10.99 0 0 0-3.137-2.435c-1.75-.89-3.631-2.6-3.631-3.358a6.91 6.91 0 0 0-1.057-1.646c-1.221-1.547-4.06-6.254-4.985-8.327-.528-1.185-2.443-4.576-3.796-6.748-.264-.461-.462-.922-.43-1.086 0-.132-.198-.79-.56-1.482-.826-1.645-1.915-5.102-2.312-7.307-.165-.823-.495-2.107-.858-3.39l-.099-.264a20.699 20.699 0 0 0-1.453-3.85c-.264-.297-.23-.33.231-.198.529.23.562.098.43-1.087a9.852 9.852 0 0 0-.694-2.435c-.759-1.712-1.32-7.209-.891-8.394.165-.46.462-2.666.726-5.003l.033-.264.033-.329v-.23c.297-2.535.463-5.003.33-5.168a6.904 6.904 0 0 1 .99-1.975c.661-.987 1.19-2.106 1.19-2.469 0-.329.263-1.086.594-1.645.33-.527 1.09-2.173 1.65-3.621 1.75-4.115 2.641-5.793 4.16-7.472 2.08-2.304 2.179-2.469 2.179-3.39 0-.494.198-.823.495-.823.98-.801 1.808-1.771 2.443-2.864 2.377-3.456 3.268-4.51 4.226-5.003.396-.198 1.221-1.086 1.783-1.942.594-.856 1.188-1.613 1.287-1.712.132-.099.43-.724.627-1.382.231-.659.925-1.646 1.552-2.206s1.122-1.152 1.122-1.316c0-.198.595-.659 1.32-.988 1.19-.625 1.321-.658 1.52-.197.198.46.297.46.858-.066.627-.56.627-.56-.132-1.12l-.76-.592.925-.329c.528-.197 1.09-.33 1.254-.33.166 0 .595-.328.958-.657l.66-.659v.659c0 .362-.33.757-.792.987-.859.33-1.387.889-1.057 1.185.1.132.595 0 1.09-.263.66-.33.891-.33.99 0 .231.56.99.46 2.047-.264.495-.329 1.32-.757 1.882-.888 1.221-.297 3.961-1.646 4.259-2.107.33-.593.825-.33.825.428 0 .757.066.79 2.641.658 1.486-.066 3.07-.263 3.565-.46l.892-.33-.793-.592c-.726-.56-.759-.626-.198-.922.33-.197.496-.494.33-.724-.264-.46-1.155-.494-1.155 0 0 .165-.33.592-.693.987-.66.659-.76.659-1.65.198-.86-.395-.925-.527-.463-.889.66-.592.627-1.086-.165-.889-.363.1-.66.033-.66-.131 0-.165-.232-.296-.529-.296-.363 0-.462.23-.33 1.02.132.922.066.987-.561.823-.363-.099-.891 0-1.122.197-.33.23-.463.198-.66-.197-.067-.296-.463-.527-.793-.527-.726 0-.792.33-.198.988.33.395.297.395-.165.033-.43-.33-.594-.297-.826.098-.165.264-.462.395-.66.264-.264-.165.132-.659 1.123-1.482 1.65-1.316 1.98-1.448 2.278-.724.264.692.792.659.792-.098 0-.527.891-1.087 2.905-1.745.792-.263.99.263.33.922-.23.263-.132.46.396.757.66.362.826.329 1.32-.33.331-.46.661-.658.661-.46 0 .658.99.823 1.255.197.264-.658 1.386-.856 1.386-.23 0 .263.297.56.66.658.33.099.66.395.66.658 0 .23.925.527 2.51.757 2.575.395 3.5.23 4.259-.822.396-.494 1.287-.593 2.41-.264.462.165.726.099.726-.131 0-.494 2.212-.461 2.509.033.165.263.33.197.462-.264.165-.46.627-.658 1.65-.79 1.387-.164 1.486-.23 1.585-1.218.066-.658.264-.987.496-.921.23.098.627 0 .89-.165.397-.263.43-.33 0-.625-.33-.23-.33-.297 0-.428.496-.165.166-.922-.362-.922-.396 0-2.311 1.91-2.311 2.304 0 .198-.1.33-.33.33-.132 0-.33-.297-.33-.659 0-.33.165-.658.297-.658.165 0 .264-.33.264-.757-.033-.659.132-.724 1.717-.823 1.452-.099 1.716 0 1.716.46zM12.643 167.709c.099.23.396.46.66.46.297 0 .528.231.528.495 0 .658-1.98.69-2.575.098-.23-.23-.396-.658-.396-.987 0-.757 1.486-.823 1.783-.099v.033zm48.43-28.802h-.033c-.099 0-.759.758-1.485 1.68-1.09 1.447-1.222 1.744-.891 2.468.462.987.462 1.185 0 .922-.166-.132-.529 0-.793.164-.396.33-.495.33-.528 0-.033-.428-.297.56-.462 1.58v.132l-.033.164-.1 1.02c-.032.396.133.725.33.725.166 0 .232-.132.133-.33-.1-.164 0-.328.297-.328s.528-.198.528-.461c0-.264.231-.527.495-.659a.51.51 0 0 0 .298-.658c-.1-.296-.033-.527.165-.527.462 0 .462 1.81 0 2.667-.231.428-.198.658 0 .658.396 0 1.122-1.514 1.485-3.061.165-.659 0-1.086-.528-1.646-.76-.757-1.155-1.91-.66-1.91.198 0 .396.33.495.66.198.822.76.855.99.098.198-.33.066-.724-.264-.955-.495-.329-.495-.428 0-.724.562-.296.99-1.744.528-1.646l.034-.033zM100.03 28.013c-.363.198-1.155.23-1.782.1a27.117 27.117 0 0 0-8.782.032c-1.155.263-2.443.46-2.872.46-.462 0-1.98.363-3.334.824-1.217.424-2.48.7-3.764.823-.726 0-1.32.197-1.42.428-.033.098-.165.23-.462.362l-.066.033c-.891.428-2.971 1.119-7.395 2.501a57.869 57.869 0 0 0-5.711 2.37l-.363.165-.363.164c-3.137 1.482-6.306 3.127-7.33 3.95h-.098l-.166.165-.066.066-.165.098-1.485 1.054c-.43.263-.43.23 0-.33.264-.329.76-.921 1.155-1.25.33-.33.528-.56.33-.494-2.179.856-2.509 1.053-2.674 1.777-.198.823-2.08 2.107-3.07 2.107-.33 0-.825-.296-1.056-.658l-.463-.724-1.98.757c-.755.307-1.526.57-2.311.79-.694.033-1.816.56-1.816.823 0 .131-.231.329-.495.46-.43.165-.43.033 0-.987.264-.658.495-1.317.495-1.547 0-.658-1.816 1.382-2.641 2.962a50.177 50.177 0 0 1-1.75 2.963 16.434 16.434 0 0 0-2.542 5.727c0 .494-.396 2.568-.891 4.608a20.645 20.645 0 0 0-.1 10.896c.166.757.33 1.58.562 2.402l.099.264a26.284 26.284 0 0 0 2.509 6.748c.264.263.858 1.152 1.288 2.007.429.856.99 1.745 1.287 1.975.297.264.528.56.528.725 0 .164.495.757 1.123 1.35.627.592 2.64 2.698 4.523 4.706 3.367 3.62 5.018 4.938 8.748 6.912 3.136 1.646 3.764 2.14 4.424 3.424l.099.197.033.033c.561.922 1.618 1.547 6.867 4.18a134.008 134.008 0 0 1 6.702 3.522c.198.132.66.659 1.056 1.087.528.56 1.717 1.086 4.028 1.711 1.363.286 2.669.798 3.862 1.514.297.33 1.09.725 1.75.823 1.65.33 2.31.725 2.31 1.416 0 .987 2.51 2.106 4.028 1.876 1.75-.263 3.269.099 3.269.79 0 .33.099.658.23.757.166.165 1.817.23 3.632.198h.694c1.452-.033 2.872-.132 3.532-.297 3.301-.757 5.447-1.316 6.273-1.81.56-.263 1.188-.494 1.42-.494.197 0 .395-.131.395-.329 0-.165.265-.33.628-.33.33 0 1.32-.493 2.212-1.085l3.268-2.041c.858-.494 3.4-2.765 5.975-5.234l.264-.23.496-.494.363-.33.429-.46.231-.197.198-.198.198-.197.33-.33.198-.197a28.83 28.83 0 0 0 4.358-4.872c0-.329.76-1.415 1.65-2.403.925-.987 1.652-2.106 1.652-2.435 0-.33.23-1.054.495-1.547.264-.527.495-1.251.495-1.613.048-.464.219-.907.495-1.284.271-.367.442-.798.495-1.25 0-.33.165-.593.33-.593.199 0 .33-.297.33-.626s.166-.757.33-.855c.199-.132.265-.79.199-1.515-.1-.79-.033-1.283.198-1.283s.198-.165-.066-.461c-.198-.264-.33-.757-.33-1.086.099-.33-.132-1.054-.43-1.646-.693-1.317-.726-2.732-.065-2.732.66 0 .627-.626 0-.889-.99-.33-1.519-2.107-1.816-5.925-.198-2.732-.43-3.95-.825-4.378-.463-.493-.496-.724-.133-1.316l.397-.79.462.69c.429.66.561.66 1.65.231 1.189-.395 1.255-.493 1.189-1.645-.066-.659-.33-1.449-.561-1.745-.231-.296-.561-1.053-.694-1.646-.132-.658-.429-1.547-.66-1.975-.33-.691-.858-1.81-1.32-2.93l-.132-.23c-.694-1.646-1.354-3.291-1.354-3.456 0-.23-.891-1.646-1.98-3.16l-.1-.197-.066-.1-.165-.23-.231-.329-.165-.23a28.68 28.68 0 0 0-2.443-3.16 13.33 13.33 0 0 1-1.717-2.469 24.535 24.535 0 0 0-3.532-4.41l-.198-.165c-1.09-1.152-2.08-2.304-2.377-2.732-.363-.593-.859-.922-1.354-.922-.462 0-1.254-.395-1.816-.856-.858-.724-1.056-.757-1.221-.329-.1.33-.528.527-.924.527-1.156 0-3.863-.988-4.061-1.514-.1-.263-.495-.461-.891-.461-.595 0-.529-.099.297-.494l.99-.428h-1.09c-1.32-.065-2.376-.592-2.376-1.152 0-.23-.43-.658-.99-.987-.991-.593-3.071-.527-4.524.164h-.033zm34.235 77.254c-.528-.658-.66-.724-.99-.296a2.956 2.956 0 0 0-.33 1.12c0 .46-.066.526-.396.23-.363-.297-.529-.1-.859.987-.198.658-.56 1.448-.792 1.679-.276.3-.5.645-.66 1.02-.33.79-1.222.724-1.222-.131 0-.593-.066-.626-.495-.297-.561.461-.66 1.877-.132 2.041.198.066 0 .494-.396 1.02-.462.659-.825.823-1.057.593-.462-.46-2.178.56-2.211 1.382 0 .56 1.98.198 2.376-.427.232-.33.66-.659.99-.659.331 0 .595-.164.595-.329 0-.197.297-.658.66-1.053.496-.56.727-.626 1.123-.296.396.329.495.263.627-.33.132-.658.165-.625.198.198 0 .921.066.987.627.362.397-.428.463-.658.166-.757-.793-.296-.43-.724.627-.823 1.056-.099 1.75-.922.792-.922-.33 0-.528-.131-.528-.329 0-.164.43-.329.957-.329.561 0 1.09-.132 1.189-.33.099-.164.594-.23 1.09-.13.66.13 1.089 0 1.65-.66.495-.46.66-.855.462-.855-.231 0-.396-.23-.396-.494 0-.263.231-.493.528-.493.264 0 .396-.165.297-.33-.132-.197-.528-.263-.858-.164-.38.116-.792.056-1.123-.165-.33-.263-.495-.296-.495-.066 0 .198-.33.461-.726.56-.528.197-.858.033-1.32-.527h.032zm-2.112 3.654c.264 0 .495.132.495.33 0 .13-.231.328-.495.46-.33.099-.496 0-.496-.296 0-.264.231-.494.496-.494zm4.456-2.304c.397 0 .595.164.496.329-.1.198-.33.33-.496.33-.165 0-.396-.132-.495-.33-.099-.165.1-.33.495-.33zm2.443-9.513c-1.09-.494-1.188-.46-1.056.198.066.329-.231.888-.66 1.316-.397.395-.727.988-.727 1.251 0 .263-.165.494-.363.494-.198 0-.33.329-.198.658.1.461 0 .658-.33.658-.43 0-.43.066-.066.56.43.494.33.527-.43.33-.527-.132-.924-.132-.924 0 0 .46.892 1.415 1.288 1.415.198 0 .33.131.33.329 0 .197.33.197.792.033.496-.198.99-.132 1.552.131.924.494 1.255.395.726-.263-.23-.263-.23-.592-.066-.889.43-.658.396-.987 0-.987-.165 0-.33.23-.33.494 0 .329-.363.493-1.155.493-1.387 0-1.42-.296-.33-1.613.792-.888.792-.987.23-1.086-.528-.066-.594-.23-.362-.856.264-.658.33-.724.792-.263.264.263.495.658.495.823 0 .527.825.46 1.288-.099.198-.23.297-.658.165-.987-.1-.297-.066-.527.132-.527.627 0 0-1.25-.793-1.613zm8.056 1.712c.132-.856-.33-.988-.925-.264-.264.33-.693.428-1.221.33l-.066-.033c-.495-.132-.859-.066-1.024.197-.198.33-.429.264-1.023-.296-.726-.658-.792-.658-1.024-.132-.198.56-.23.56-.23 0-.034-.526-.133-.56-.529-.23-.396.329-.429.527-.132.856.231.329.264.46 0 .46-.396 0-1.32 2.535-1.254 3.555 0 .79.56 1.02.56.264 0-.395 1.255-2.568 2.18-3.786.198-.23.99.823 1.287 1.58.297.988.826.757 1.453-.56.297-.559.825-1.053 1.188-1.118.397-.066.66-.395.76-.823zm3.4-12.18c-.33-.13-.363 0-.231.495.165.493 0 .79-.43 1.02-.825.46-2.343.46-2.343.033 0-.165.23-.33.528-.33.264 0 .396-.164.297-.328-.396-.659-3.136.098-3.136.855 0 .56.726.593 1.221.1.264-.264.43-.165.595.361.33 1.054-.33 1.58-1.09.889-.33-.296-.76-.56-.99-.56-.528 0-1.453 1.58-1.024 1.81.198.132.231.66.132 1.219l-.33 1.514c-.033.329-.528.658-1.09.79-1.089.329-1.353.724-.692 1.119.198.099.495 0 .66-.23.23-.33.297-.33.297.065 0 .33-.33.79-.693 1.152-.694.659-.727.659-.496-.098.265-.856-.363-1.054-1.056-.33-.561.527-.495.89.132.89.264 0 .396.164.297.361-.165.23.198.33.99.23 1.057-.065 1.321-.23 1.321-.756 0-.428.198-.659.594-.626.297.033.562-.066.562-.23 0-.165-.33-.33-.727-.33-.56 0-.66-.065-.165-.197.297-.066.561-.263.561-.428 0-.131.298-.197.66-.098.562.131.661 0 .661-.823 0-.56-.198-1.087-.396-1.152-.231-.1 0-.198.627-.198 1.189 0 2.311-.922 1.783-1.448-.396-.395.165-1.745.825-1.975.528-.23.66-.066.925 1.514.132.757.099 1.218-.133 1.218-.165 0-.33-.296-.33-.659 0-.329-.165-.658-.33-.658-.23 0-.264.428-.165 1.12.198.921.1 1.151-.396 1.316-.33.099-.165.132.396.066.925-.132.925-.099.33.329a2.315 2.315 0 0 1-1.221.46c-.33 0-.594.231-.594.593 0 .33-.1.889-.199 1.317-.165.527-.066.724.33.724.33 0 .43-.197.33-.494-.131-.296 0-.493.33-.493.331 0 .53-.264.53-.725 0-.658 0-.658.66-.098.726.658.89.46 1.089-1.185 0-.494.23-1.087.429-1.317.726-.922.76-1.547.099-1.712-.792-.197-.825-1.086-.033-1.283.726-.198.825-2.6.099-2.831v.033zm-10.234 6.354c-.1-.494-.198-.56-.33-.198a2.305 2.305 0 0 1-.66.856c-.265.197-.529.757-.595 1.25-.099.66 0 .857.396.857.66 0 1.453-1.844 1.222-2.765h-.033zm-74.61-12.838c.197.527-1.42 1.087-3.665 1.185l-2.146.132v1.317c0 1.25 0 1.316 1.122 1.185 1.453-.165 1.255.56-.33 1.053-.825.33-1.09.527-1.023 1.02.046 1.33.134 2.659.264 3.983.165 2.008.297 2.403.891 2.7.595.328.33.361-1.32.361a12.58 12.58 0 0 0-2.84.33c-.792.329-.792.329-.495-.955.232-.823.199-3.094-.033-6.583l-.264-5.201v-.296c.066-.066 2.113-.165 4.556-.23 2.443-.066 4.59-.198 4.787-.231.231-.066.43.033.495.197v.033zm76.888 11.455c-.363-.921-.826-.987-1.123-.23-.23.592 0 .987 1.189 1.547.495.263.792.263.891.066.066-.165-.033-.395-.264-.461s-.528-.494-.693-.922zm-23.638-6.912c.462.329.495.56.231 1.316-.264.659-.561.856-1.32.856-1.387 0-1.486.395-.529 2.304.99 1.975.99 2.37.232 3.062-.727.69-3.203 1.086-3.5.592-.132-.197-.561-.33-.99-.33-.495 0-.561-.13-.264-.427.23-.23.396-.658.396-.988 0-.757.891-1.152 1.42-.625.215.207.494.334.792.362.726 0 .462-.823-.562-1.81-1.584-1.514-1.221-3.456.826-4.28 1.42-.592 2.509-.625 3.268-.065v.033zm-31.363-.066c.198.132.496 1.646.66 3.292.145 1.23.365 2.45.66 3.653.199.395.1.56-.23.56-.561 0-1.057-1.317-1.354-3.621-.363-2.469-.561-2.534-2.476-.856l-1.716 1.547-1.321-.987c-.66-.56-1.387-.988-1.552-.988-.198 0-.462.527-.594 1.218a8.54 8.54 0 0 1-.561 1.876c-.175.304-.287.64-.33.988.198.46-.264 1.481-.66 1.481-.232 0-.66-.164-.991-.329-.693-.428-.43-2.238.66-4.246.43-.79.76-1.613.76-1.843 0-.23.297-.659.66-.988.726-.658.726-.625 1.42.33 1.98 2.764 2.97 2.863 5.216.427.858-.954 1.65-1.646 1.782-1.514h-.033zm-11.95-1.12c.198.198.297.462.23.527-.099.1-1.65.395-3.433.692-3.697.592-4.457.921-4.457 1.81 0 .593.231.658 1.882.658 2.311 0 1.98.494-.561.89-1.75.262-1.816.328-1.816 1.25v.987l4.06-.065h2.015c1.75 0 1.914.065 1.551.428l-.099.098c-.429.428-1.65.691-4.424.988-5.117.493-5.315.493-5.117-.198.066-.329.396-1.909.66-3.555.826-4.608.793-4.542 1.585-4.279.396.066 2.278 0 4.127-.23 2.575-.296 3.5-.296 3.796 0zm32.22 3.095c2.972 0 3.368.428.66.724-2.574.33-3.433.724-2.871 1.383.198.263.594.46.825.46.76 0 .528.527-.43.988-1.353.592-.527.987 2.708 1.316 1.585.165 2.971.395 3.103.494.066.099-.891.132-2.31.132h-1.717l-4.292-.099.297-1.316a24.92 24.92 0 0 0 .297-2.47c.1-1.415.594-1.612 3.73-1.612zm-8.781-1.02c.264 0 1.09 1.711 2.311 4.707.66 1.645.396 2.073-.495.724-.33-.428-.826-1.514-1.156-2.37-.33-.889-.792-1.58-.99-1.58a5.941 5.941 0 0 0-1.65 1.218l-1.255 1.25-.925-.724c-.528-.428-.99-.592-1.056-.395-.231.692-2.146 3.094-2.476 3.094-.594 0 .726-2.962 2.047-4.608l.66-.823.66.79a7.99 7.99 0 0 1 .958 1.317c.198.329.56.132 1.65-1.086.793-.823 1.552-1.514 1.717-1.514zm17.728-17.018c-.099.197-.561.592-1.056.823-1.189.592-1.42 1.25-.693 2.04.56.659.56.692-.33 1.844-.529.658-1.354 1.448-1.85 1.744-.528.33-.99.659-.99.79 0 .132-.264.23-.66.23-.33 0-.66-.13-.66-.262s.792-.988 1.65-1.877c1.75-1.645 2.047-2.37 1.189-2.633-.792-.33-.594-1.712.33-2.436.99-.757 3.268-.987 3.07-.263zm-25.354 1.843c.264.56.198 1.02-.495 2.436-.344.685-.62 1.401-.826 2.14 0 .987-.99.263-2.113-1.482-.462-.79-1.023-1.415-1.188-1.415-.198 0-.33.823-.33 1.81 0 2.14-.495 2.403-.726.395-.232-1.909 0-3.522.56-3.522.232 0 .925.593 1.486 1.317.562.724 1.156 1.317 1.321 1.317.132 0 .43-.659.66-1.482.528-1.876 1.123-2.435 1.65-1.514zM66.29 67.48l1.188.034-.924.658c-.826.658-.892.823-.694 2.14.33 2.172-.033 2.995-1.75 4.081-1.55.988-2.112 1.152-2.508.757-.562-.527-.132-.987.99-1.218 1.717-.263 2.575-1.185 2.278-2.403-.825-3.258-.528-4.048 1.42-4.048zm42.026 1.449c1.188.23 2.245 1.053 2.245 1.745 0 .329-.198.395-.727.23-1.32-.46-2.377-.33-2.509.263-.066.395.165.659.727.79 1.254.33 1.056.724-.363.856-1.321.099-1.651.658-.529.856 1.32.23 1.519.362 1.09.889-.231.263-.594.46-.793.46l-1.32-.197c-.825-.132-.858-.23-.66-1.317.242-1.036.573-2.049.99-3.028.76-1.712.825-1.744 1.849-1.547zm-32.618-3.884c.463.165.496.691.33 3.818-.263 3.851-.131 4.213 1.387 4.213.33 0 .958.198 1.288.461.528.395.56.527.198.988-.561.658-1.156.658-2.84-.066l-1.32-.56-.132-4.279c-.099-4.41 0-4.937 1.09-4.575zm23.836 1.514c.396.362.528 1.317.561 3.654l.066 3.16 1.816.098c1.42.066 1.849.23 1.915.692.099.46-.132.56-1.486.526-.858 0-1.98-.131-2.443-.197-.858-.132-.891-.23-1.122-2.963a16.738 16.738 0 0 1 0-5.332c.132-.099.396.066.66.362h.033zm-17.662 3.226c1.42 0 2.179 2.995.99 4.049-.792.757-1.254.69-2.178-.23-.694-.66-.76-.955-.496-1.844.396-1.317.925-1.975 1.651-1.975h.033zm-10.828-1.317c.924 0 .33.56-.793.79-.792.165-.99.33-.891.922.066.526.396.823 1.09.987l.99.165-1.09.263c-.759.165-1.056.428-.99.79.099.428.43.494 1.65.428 1.321-.099 1.552 0 1.387.395-.099.33-.594.527-1.09.527-.462 0-1.188.099-1.584.197-.693.198-.76.132-.76-2.106v-.33c0-2.797.133-2.962 2.08-3.028zm10.828 2.963c-.495 0-.693.197-.693.69 0 .824 1.09.725 1.254-.13.066-.396-.099-.56-.561-.56zm75.37-8.065c.099.264 0 .56-.1.659-.164.098-.362-.066-.494-.33-.1-.263-.033-.56.099-.658.165-.099.33.066.495.33zM49.75 46.973c.44.139.852.35 1.221.625h.033v.033l.033.033c.397.428.198 1.251-1.221 6.518l-1.42 5.464-.033.131-.198.89c0 .13 1.453.164 3.335.032l3.598-.23v1.744h-9.574v-.79a20.034 20.034 0 0 1 1.519-5.266c.23-.56.66-2.305.957-3.95.826-4.674 1.09-5.431 1.75-5.234zm75.436 9.217c1.221.427.33.921-1.585.822-3.202-.197-4.655.56-2.377 1.218l1.057.33h-1.156c-1.09.065-2.641.822-2.31 1.152.098.098 1.22.23 2.475.329 2.51.164 4.853.856 5.051 1.448.165.527-1.254.46-3.565-.099-.99-.263-2.443-.46-3.203-.493-.759 0-1.485-.132-1.584-.33-.1-.164-.066-.329.099-.329s.396-.889.495-1.942c.099-1.086.264-2.14.396-2.37.264-.395 4.952-.263 6.207.23v.034zm-57.543-4.05c0 .396-2.146 1.515-2.971 1.515-1.09.033-5.018 1.777-5.447 2.436-.594.987.297 1.35 1.75.757 1.254-.494 1.32-.494 1.485.066.132.526-.099.658-1.585.855-1.782.198-1.98.428-1.65 2.074.132.494.396.724.99.724.43 0 .892-.164.99-.329.166-.263.793-.296 1.783-.164.859.098 1.948.065 2.476-.165.793-.296.892-.263.727.198l-.198.757c0 .164-1.453.362-3.203.428-1.783.098-3.466.329-3.763.394-.396.165-.595 0-.76-.625-.132-.46-.132-1.975-.033-3.62v-.527l.264-3.259 2.146-.658c.76-.23 1.816-.461 2.873-.659h.23c1.981-.329 3.896-.46 3.896-.197zm12.38 1.778c.66 1.317 1.32 2.37 1.486 2.37.099 0 1.452-1.185 3.037-2.633 2.971-2.798 2.971-2.798 3.962-.823.363.658.792 2.04 1.155 3.423l.066.264.1.329.065.197c.386 1.168.575 2.392.562 3.621-.166.165-.397 0-.529-.46a46.648 46.648 0 0 0-1.09-3.128l-.065-.23-.033-.099-.1-.23a22.742 22.742 0 0 0-1.518-3.522 17.158 17.158 0 0 0-2.476 1.975 16.5 16.5 0 0 1-2.509 1.975c-.165 0-.33.23-.33.493 0 1.087-1.023.066-2.707-2.567-.99-1.514-1.024-1.448-3.995 4.016-1.221 2.238-2.113 2.962-2.674 2.008-.132-.198.132-.89.561-1.58l2.311-4.214.198-.395.265-.493c2.31-4.444 2.112-4.444 4.258-.297zm35.82 3.95c0 .724-.198 1.449-.396 1.646-.788.298-1.593.55-2.41.757l-.231.066-.132.033-.198.066c-.99.263-1.915.46-2.212.46-.165 0-.562-.23-.859-.526-.396-.428-.495-1.086-.429-3.226l.1-2.633 1.32-.132c2.97-.263 5.447 1.317 5.447 3.49zm-17.563-.987c.627 1.119.462 1.876-.595 2.633-1.023.757-2.244.889-3.73.33-1.684-.593-1.65-2.634.066-3.786 1.783-1.218 3.367-.922 4.259.79v.033zm8.451-2.206c-.429.461-.66 1.317-.726 2.864a7.55 7.55 0 0 1-.363 2.403c-.1.132-.529.099-.925 0-.363-.198-1.188-.988-1.782-1.876-.99-1.449-1.09-1.514-1.519-.955a3.251 3.251 0 0 0-.43 1.514c0 .856-.494 1.547-.858 1.185-.23-.23.859-4.805 1.189-5.003.165-.099.76.428 1.32 1.152.628.724 1.222 1.317 1.387 1.317.132 0 .264-.659.264-1.547 0-1.91.231-2.239 1.387-2.469 1.287-.23 1.881.527 1.056 1.415zm-12.248 3.72c.231.658 1.585.691 2.146.132.627-.626.462-1.218-.462-1.449-.99-.263-1.981.527-1.684 1.317zm16.408-.79c0 .987.066 1.02 1.254.922 1.057-.1 1.222-.198 1.222-.922s-.165-.823-1.222-.922c-1.188-.098-1.254-.066-1.254.922zM50.146 8.23c0 .164-.198.329-.462.329s-.561.165-.66.395c-.1.23-.165.198-.165-.132-.033-.296.264-.625.627-.724.33-.099.66 0 .66.132zm19.412-6.254c.396 0 1.122 1.119 1.287 2.04.067.33-.099.56-.429.56-.33 0-.462.198-.33.494.1.263.1.494 0 .494-.099 0-.264-.297-.363-.659-.099-.395-.462-.658-.891-.658-.66 0-.66 0-.1-.33.33-.23.826-.295 1.09-.197.627.23.594-.428-.099-1.185-.33-.329-.363-.592-.165-.592v.033zm2.641 1.777c0 .362-.099.988-.264 1.317-.264.592-.33.592-.33-.165.006-.458.12-.909.33-1.316.264-.395.33-.395.297.164H72.2zm5.15-2.83c1.156.197 2.377.329 2.707.164.528-.164.528-.132-.033.23a3.629 3.629 0 0 0-.891.758c-.132.197-.396.164-.726-.1-.66-.526-1.222-.197-.99.56.131.362.098.428-.1.165-.33-.46-4.39-.527-4.39-.066 0 .494-.529.33-1.09-.296-.33-.33-.561-.658-.561-.79 0-.33 1.254-.527 1.551-.23.198.197.727.098 1.387-.23.891-.429 1.386-.462 3.136-.165z" fill="#892101"></path>
</svg>
